# xmcd
#
# Track frame offsets: 
#        150
#        16072
#        35760
#        56900
#        63222
#        83437
#        102695
#        124075
#        150630
#        170300
#        185772
#        202217
#        220972
#        244625
#
# Disc length: 3312 seconds
#
# Revision: 6
# Processed by: cddbd v1.5.2PL0 Copyright (c) Steve Scherf et al.
# Submitted via: ExactAudioCopy v1.0b3
#
DISCID=c40cee0e
DTITLE=YELLOW MAGIC ORCHESTRA - SERVICE (紙ジャケット仕様) ALCA-5224
DYEAR=1983
DGENRE=Techno
TTITLE0=LIMBO
TTITLE1=S.E.T(SuperEccentricTheater)
TTITLE2=THE MADMEN 
TTITLE3=S.E.T
TTITLE4=チャイニーズ・ウィスパーズ
TTITLE5=S.E.T
TTITLE6=以心電信~ユーヴ・ガット・トゥ・ヘルプ・ユアセルフ 
TTITLE7=S.E.T+YMO
TTITLE8=シャドウズ・オン・ザ・グラウンド
TTITLE9=S.E.T
TTITLE10=シー・スルー
TTITLE11=S.E.T
TTITLE12=パースペクティヴ 
TTITLE13=S.E.T
EXTD=YEAR: 1983
EXTT0=
EXTT1=
EXTT2=
EXTT3=
EXTT4=
EXTT5=
EXTT6=
EXTT7=
EXTT8=
EXTT9=
EXTT10=
EXTT11=
EXTT12=
EXTT13=
PLAYORDER=
